# xmcd CD database file
#
# Track frame offsets:
#	150
#	29782
#	75343
#	113667
#	145274
#	181396
#	219782
#
# Disc length: 3454 seconds
#
# Revision: 0
# Processed by: cddbd v1.5.2PL0 Copyright (c) Steve Scherf et al.
# Submitted via: CDex 1.51
#
DISCID=560d7c07
DTITLE=charles mingus - thrice upon a theme
DYEAR=1954
DGENRE=Jazz
TTITLE0=thrice upon a theme
TTITLE1=minor intrusions
TTITLE2=percussion discussion
TTITLE3=septemberly
TTITLE4=what is this thing called love
TTITLE5=spur of a moment
TTITLE6=four hands
EXTD=YEAR: 1954
EXTT0=
EXTT1=
EXTT2=
EXTT3=
EXTT4=
EXTT5=
EXTT6=
PLAYORDER=
